<mxfile host="65bd71144e">
    <diagram id="R2lEEEUBdFMjLlhIrx00" name="Hotel_ERM_Ãœbung1">
        <mxGraphModel dx="1204" dy="2425" grid="0" gridSize="10" guides="1" tooltips="1" connect="1" arrows="1" fold="1" page="1" pageScale="1" pageWidth="1169" pageHeight="1654" background="none" math="0" shadow="0" extFonts="Permanent Marker^https://fonts.googleapis.com/css?family=Permanent+Marker">
            <root>
                <mxCell id="0"/>
                <mxCell id="1" parent="0"/>
                <mxCell id="_1UwqymwAtqr6VSBaasp-29" style="rounded=1;orthogonalLoop=1;jettySize=auto;html=1;exitX=1;exitY=0.5;exitDx=0;exitDy=0;edgeStyle=orthogonalEdgeStyle;endArrow=none;endFill=0;curved=1;" parent="1" source="_1UwqymwAtqr6VSBaasp-1" target="_1UwqymwAtqr6VSBaasp-14" edge="1">
                    <mxGeometry relative="1" as="geometry">
                        <Array as="points">
                            <mxPoint x="230" y="-1410"/>
                            <mxPoint x="230" y="-1410"/>
                        </Array>
                    </mxGeometry>
                </mxCell>
                <mxCell id="_1UwqymwAtqr6VSBaasp-80" value="(1,n)" style="edgeLabel;html=1;align=center;verticalAlign=middle;resizable=0;points=[];rounded=1;" parent="_1UwqymwAtqr6VSBaasp-29" vertex="1" connectable="0">
                    <mxGeometry x="0.1576" y="-1" relative="1" as="geometry">
                        <mxPoint x="1" y="-1" as="offset"/>
                    </mxGeometry>
                </mxCell>
                <mxCell id="_1UwqymwAtqr6VSBaasp-31" style="edgeStyle=orthogonalEdgeStyle;rounded=1;orthogonalLoop=1;jettySize=auto;html=1;exitX=0.5;exitY=1;exitDx=0;exitDy=0;entryX=0;entryY=0.5;entryDx=0;entryDy=0;endArrow=none;endFill=0;curved=1;" parent="1" source="_1UwqymwAtqr6VSBaasp-1" target="_1UwqymwAtqr6VSBaasp-18" edge="1">
                    <mxGeometry relative="1" as="geometry"/>
                </mxCell>
                <mxCell id="_1UwqymwAtqr6VSBaasp-81" value="(1,n)" style="edgeLabel;html=1;align=center;verticalAlign=middle;resizable=0;points=[];rounded=1;" parent="_1UwqymwAtqr6VSBaasp-31" vertex="1" connectable="0">
                    <mxGeometry x="-0.0948" y="-1" relative="1" as="geometry">
                        <mxPoint as="offset"/>
                    </mxGeometry>
                </mxCell>
                <mxCell id="_1UwqymwAtqr6VSBaasp-98" style="edgeStyle=orthogonalEdgeStyle;rounded=1;orthogonalLoop=1;jettySize=auto;html=1;exitX=0;exitY=0.5;exitDx=0;exitDy=0;entryX=0.5;entryY=0;entryDx=0;entryDy=0;endArrow=none;endFill=0;curved=1;" parent="1" source="_1UwqymwAtqr6VSBaasp-1" target="_1UwqymwAtqr6VSBaasp-28" edge="1">
                    <mxGeometry relative="1" as="geometry"/>
                </mxCell>
                <mxCell id="_1UwqymwAtqr6VSBaasp-136" style="edgeStyle=orthogonalEdgeStyle;rounded=1;orthogonalLoop=1;jettySize=auto;html=1;exitX=0.5;exitY=0;exitDx=0;exitDy=0;entryX=0;entryY=0.5;entryDx=0;entryDy=0;endArrow=none;endFill=0;curved=1;" parent="1" source="_1UwqymwAtqr6VSBaasp-1" target="_1UwqymwAtqr6VSBaasp-134" edge="1">
                    <mxGeometry relative="1" as="geometry"/>
                </mxCell>
                <mxCell id="_1UwqymwAtqr6VSBaasp-137" value="(1,n)" style="edgeLabel;html=1;align=center;verticalAlign=middle;resizable=0;points=[];rounded=1;" parent="_1UwqymwAtqr6VSBaasp-136" vertex="1" connectable="0">
                    <mxGeometry x="0.0383" y="1" relative="1" as="geometry">
                        <mxPoint as="offset"/>
                    </mxGeometry>
                </mxCell>
                <mxCell id="_1UwqymwAtqr6VSBaasp-1" value="Hotel" style="rounded=1;whiteSpace=wrap;html=1;fillColor=#a20025;fontColor=#ffffff;strokeColor=#6F0000;" parent="1" vertex="1">
                    <mxGeometry x="105" y="-1440" width="120" height="60" as="geometry"/>
                </mxCell>
                <mxCell id="_1UwqymwAtqr6VSBaasp-44" style="edgeStyle=orthogonalEdgeStyle;rounded=1;orthogonalLoop=1;jettySize=auto;html=1;exitX=0.5;exitY=0;exitDx=0;exitDy=0;entryX=0.5;entryY=1;entryDx=0;entryDy=0;endArrow=none;endFill=0;curved=1;" parent="1" source="_1UwqymwAtqr6VSBaasp-3" target="_1UwqymwAtqr6VSBaasp-43" edge="1">
                    <mxGeometry relative="1" as="geometry"/>
                </mxCell>
                <mxCell id="_1UwqymwAtqr6VSBaasp-45" style="edgeStyle=orthogonalEdgeStyle;rounded=1;orthogonalLoop=1;jettySize=auto;html=1;exitX=0.5;exitY=1;exitDx=0;exitDy=0;entryX=0.5;entryY=0;entryDx=0;entryDy=0;endArrow=none;endFill=0;curved=1;" parent="1" source="_1UwqymwAtqr6VSBaasp-3" target="_1UwqymwAtqr6VSBaasp-10" edge="1">
                    <mxGeometry relative="1" as="geometry"/>
                </mxCell>
                <mxCell id="_1UwqymwAtqr6VSBaasp-86" value="(1,n)" style="edgeLabel;html=1;align=center;verticalAlign=middle;resizable=0;points=[];rounded=1;" parent="_1UwqymwAtqr6VSBaasp-45" vertex="1" connectable="0">
                    <mxGeometry x="-0.1194" y="2" relative="1" as="geometry">
                        <mxPoint as="offset"/>
                    </mxGeometry>
                </mxCell>
                <mxCell id="_1UwqymwAtqr6VSBaasp-77" style="edgeStyle=orthogonalEdgeStyle;rounded=1;orthogonalLoop=1;jettySize=auto;html=1;exitX=1;exitY=0.5;exitDx=0;exitDy=0;entryX=0;entryY=0.5;entryDx=0;entryDy=0;endArrow=none;endFill=0;curved=1;" parent="1" source="_1UwqymwAtqr6VSBaasp-3" target="_1UwqymwAtqr6VSBaasp-15" edge="1">
                    <mxGeometry relative="1" as="geometry"/>
                </mxCell>
                <mxCell id="_1UwqymwAtqr6VSBaasp-91" value="(1,n)" style="edgeLabel;html=1;align=center;verticalAlign=middle;resizable=0;points=[];rounded=1;" parent="_1UwqymwAtqr6VSBaasp-77" vertex="1" connectable="0">
                    <mxGeometry x="0.0059" relative="1" as="geometry">
                        <mxPoint as="offset"/>
                    </mxGeometry>
                </mxCell>
                <mxCell id="_1UwqymwAtqr6VSBaasp-140" style="edgeStyle=orthogonalEdgeStyle;rounded=1;orthogonalLoop=1;jettySize=auto;html=1;exitX=0;exitY=0.5;exitDx=0;exitDy=0;entryX=1;entryY=0.5;entryDx=0;entryDy=0;endArrow=none;endFill=0;curved=1;" parent="1" source="_1UwqymwAtqr6VSBaasp-3" target="_1UwqymwAtqr6VSBaasp-139" edge="1">
                    <mxGeometry relative="1" as="geometry"/>
                </mxCell>
                <mxCell id="_1UwqymwAtqr6VSBaasp-151" value="(1,1)" style="edgeLabel;html=1;align=center;verticalAlign=middle;resizable=0;points=[];rounded=1;" parent="_1UwqymwAtqr6VSBaasp-140" vertex="1" connectable="0">
                    <mxGeometry x="0.0016" relative="1" as="geometry">
                        <mxPoint as="offset"/>
                    </mxGeometry>
                </mxCell>
                <mxCell id="_1UwqymwAtqr6VSBaasp-3" value="Gast" style="rounded=1;whiteSpace=wrap;html=1;fillColor=#a20025;fontColor=#ffffff;strokeColor=#6F0000;" parent="1" vertex="1">
                    <mxGeometry x="240" y="-575" width="120" height="60" as="geometry"/>
                </mxCell>
                <mxCell id="_1UwqymwAtqr6VSBaasp-60" style="edgeStyle=orthogonalEdgeStyle;rounded=1;orthogonalLoop=1;jettySize=auto;html=1;exitX=1;exitY=1;exitDx=0;exitDy=0;entryX=0;entryY=0.5;entryDx=0;entryDy=0;endArrow=none;endFill=0;curved=1;" parent="1" source="_1UwqymwAtqr6VSBaasp-4" target="_1UwqymwAtqr6VSBaasp-22" edge="1">
                    <mxGeometry relative="1" as="geometry"/>
                </mxCell>
                <mxCell id="_1UwqymwAtqr6VSBaasp-122" style="edgeStyle=orthogonalEdgeStyle;rounded=1;orthogonalLoop=1;jettySize=auto;html=1;exitX=1;exitY=0.5;exitDx=0;exitDy=0;entryX=0;entryY=0.5;entryDx=0;entryDy=0;endArrow=none;endFill=0;curved=1;" parent="1" source="_1UwqymwAtqr6VSBaasp-4" target="_1UwqymwAtqr6VSBaasp-121" edge="1">
                    <mxGeometry relative="1" as="geometry"/>
                </mxCell>
                <mxCell id="_1UwqymwAtqr6VSBaasp-125" value="(1,1)" style="edgeLabel;html=1;align=center;verticalAlign=middle;resizable=0;points=[];rounded=1;" parent="_1UwqymwAtqr6VSBaasp-122" vertex="1" connectable="0">
                    <mxGeometry x="-0.0875" y="-3" relative="1" as="geometry">
                        <mxPoint y="-3" as="offset"/>
                    </mxGeometry>
                </mxCell>
                <mxCell id="_1UwqymwAtqr6VSBaasp-4" value="Buchung" style="rounded=1;whiteSpace=wrap;html=1;fillColor=#a20025;fontColor=#ffffff;strokeColor=#6F0000;" parent="1" vertex="1">
                    <mxGeometry x="620" y="-580" width="120" height="60" as="geometry"/>
                </mxCell>
                <mxCell id="_1UwqymwAtqr6VSBaasp-72" style="edgeStyle=orthogonalEdgeStyle;rounded=1;orthogonalLoop=1;jettySize=auto;html=1;exitX=0.5;exitY=1;exitDx=0;exitDy=0;entryX=0.5;entryY=0;entryDx=0;entryDy=0;endArrow=none;endFill=0;curved=1;" parent="1" source="_1UwqymwAtqr6VSBaasp-5" target="_1UwqymwAtqr6VSBaasp-68" edge="1">
                    <mxGeometry relative="1" as="geometry"/>
                </mxCell>
                <mxCell id="_1UwqymwAtqr6VSBaasp-94" value="(0,1)" style="edgeLabel;html=1;align=center;verticalAlign=middle;resizable=0;points=[];rounded=1;" parent="_1UwqymwAtqr6VSBaasp-72" vertex="1" connectable="0">
                    <mxGeometry x="0.3206" y="1" relative="1" as="geometry">
                        <mxPoint as="offset"/>
                    </mxGeometry>
                </mxCell>
                <mxCell id="_1UwqymwAtqr6VSBaasp-99" value="&lt;span style=&quot;caret-color: rgba(0, 0, 0, 0); color: rgba(0, 0, 0, 0); font-family: monospace; font-size: 0px; text-align: start; background-color: rgb(248, 249, 250);&quot;&gt;%3CmxGraphModel%3E%3Croot%3E%3CmxCell%20id%3D%220%22%2F%3E%3CmxCell%20id%3D%221%22%20parent%3D%220%22%2F%3E%3CmxCell%20id%3D%222%22%20value%3D%22(0%2C1)%22%20style%3D%22edgeLabel%3Bhtml%3D1%3Balign%3Dcenter%3BverticalAlign%3Dmiddle%3Bresizable%3D0%3Bpoints%3D%5B%5D%3B%22%20vertex%3D%221%22%20connectable%3D%220%22%20parent%3D%221%22%3E%3CmxGeometry%20x%3D%22936%22%20y%3D%22529.5999814814825%22%20as%3D%22geometry%22%2F%3E%3C%2FmxCell%3E%3C%2Froot%3E%3C%2FmxGraphModel%3E&lt;/span&gt;" style="edgeStyle=orthogonalEdgeStyle;rounded=1;orthogonalLoop=1;jettySize=auto;html=1;exitX=1;exitY=0.5;exitDx=0;exitDy=0;endArrow=none;endFill=0;curved=1;" parent="1" source="_1UwqymwAtqr6VSBaasp-5" target="_1UwqymwAtqr6VSBaasp-12" edge="1">
                    <mxGeometry relative="1" as="geometry"/>
                </mxCell>
                <mxCell id="_1UwqymwAtqr6VSBaasp-103" value="&lt;span style=&quot;caret-color: rgba(0, 0, 0, 0); color: rgba(0, 0, 0, 0); font-family: monospace; font-size: 0px; text-align: start; background-color: rgb(248, 249, 250);&quot;&gt;%3CmxGraphModel%3E%3Croot%3E%3CmxCell%20id%3D%220%22%2F%3E%3CmxCell%20id%3D%221%22%20parent%3D%220%22%2F%3E%3CmxCell%20id%3D%222%22%20value%3D%22(0%2C1)%22%20style%3D%22edgeLabel%3Bhtml%3D1%3Balign%3Dcenter%3BverticalAlign%3Dmiddle%3Bresizable%3D0%3Bpoints%3D%5B%5D%3B%22%20vertex%3D%221%22%20connectable%3D%220%22%20parent%3D%221%22%3E%3CmxGeometry%20x%3D%22936%22%20y%3D%22529.5999814814825%22%20as%3D%22geometry%22%2F%3E%3C%2FmxCell%3E%3C%2Froot%3E%3C%2FmxGraphModel%3E&lt;/span&gt;" style="edgeLabel;html=1;align=center;verticalAlign=middle;resizable=0;points=[];rounded=1;" parent="_1UwqymwAtqr6VSBaasp-99" vertex="1" connectable="0">
                    <mxGeometry x="0.0089" y="-1" relative="1" as="geometry">
                        <mxPoint as="offset"/>
                    </mxGeometry>
                </mxCell>
                <mxCell id="_1UwqymwAtqr6VSBaasp-104" value="&lt;span style=&quot;caret-color: rgba(0, 0, 0, 0); color: rgba(0, 0, 0, 0); font-family: monospace; font-size: 0px; text-align: start; background-color: rgb(248, 249, 250);&quot;&gt;%3CmxGraphModel%3E%3Croot%3E%3CmxCell%20id%3D%220%22%2F%3E%3CmxCell%20id%3D%221%22%20parent%3D%220%22%2F%3E%3CmxCell%20id%3D%222%22%20value%3D%22(0%2C1)%22%20style%3D%22edgeLabel%3Bhtml%3D1%3Balign%3Dcenter%3BverticalAlign%3Dmiddle%3Bresizable%3D0%3Bpoints%3D%5B%5D%3B%22%20vertex%3D%221%22%20connectable%3D%220%22%20parent%3D%221%22%3E%3CmxGeometry%20x%3D%22936%22%20y%3D%22529.5999814814825%22%20as%3D%22geometry%22%2F%3E%3C%2FmxCell%3E%3C%2Froot%3E%3C%2FmxGraphModel%3E&lt;/span&gt;" style="edgeLabel;html=1;align=center;verticalAlign=middle;resizable=0;points=[];rounded=1;" parent="_1UwqymwAtqr6VSBaasp-99" vertex="1" connectable="0">
                    <mxGeometry x="0.08" y="-3" relative="1" as="geometry">
                        <mxPoint as="offset"/>
                    </mxGeometry>
                </mxCell>
                <mxCell id="_1UwqymwAtqr6VSBaasp-105" value="(1,1)" style="edgeLabel;html=1;align=center;verticalAlign=middle;resizable=0;points=[];rounded=1;" parent="_1UwqymwAtqr6VSBaasp-99" vertex="1" connectable="0">
                    <mxGeometry x="0.0444" y="-1" relative="1" as="geometry">
                        <mxPoint as="offset"/>
                    </mxGeometry>
                </mxCell>
                <mxCell id="_1UwqymwAtqr6VSBaasp-5" value="SchlÃ¼sselkarte" style="rounded=1;whiteSpace=wrap;html=1;fillColor=#a20025;fontColor=#ffffff;strokeColor=#6F0000;" parent="1" vertex="1">
                    <mxGeometry x="700" y="-1270" width="120" height="60" as="geometry"/>
                </mxCell>
                <mxCell id="_1UwqymwAtqr6VSBaasp-55" style="edgeStyle=orthogonalEdgeStyle;rounded=1;orthogonalLoop=1;jettySize=auto;html=1;exitX=0.5;exitY=1;exitDx=0;exitDy=0;entryX=0;entryY=0.5;entryDx=0;entryDy=0;endArrow=none;endFill=0;curved=1;" parent="1" source="_1UwqymwAtqr6VSBaasp-6" target="_1UwqymwAtqr6VSBaasp-54" edge="1">
                    <mxGeometry relative="1" as="geometry"/>
                </mxCell>
                <mxCell id="_1UwqymwAtqr6VSBaasp-6" value="Rechnung" style="rounded=1;whiteSpace=wrap;html=1;fillColor=#a20025;fontColor=#ffffff;strokeColor=#6F0000;" parent="1" vertex="1">
                    <mxGeometry x="620" y="-340" width="120" height="60" as="geometry"/>
                </mxCell>
                <mxCell id="_1UwqymwAtqr6VSBaasp-33" style="edgeStyle=orthogonalEdgeStyle;rounded=1;orthogonalLoop=1;jettySize=auto;html=1;exitX=0.5;exitY=1;exitDx=0;exitDy=0;entryX=0.5;entryY=0;entryDx=0;entryDy=0;endArrow=none;endFill=0;curved=1;" parent="1" source="_1UwqymwAtqr6VSBaasp-7" target="_1UwqymwAtqr6VSBaasp-13" edge="1">
                    <mxGeometry relative="1" as="geometry"/>
                </mxCell>
                <mxCell id="_1UwqymwAtqr6VSBaasp-108" value="(0,n)" style="edgeLabel;html=1;align=center;verticalAlign=middle;resizable=0;points=[];rounded=1;" parent="_1UwqymwAtqr6VSBaasp-33" vertex="1" connectable="0">
                    <mxGeometry x="0.0286" y="1" relative="1" as="geometry">
                        <mxPoint as="offset"/>
                    </mxGeometry>
                </mxCell>
                <mxCell id="_1UwqymwAtqr6VSBaasp-37" style="edgeStyle=orthogonalEdgeStyle;orthogonalLoop=1;jettySize=auto;html=1;exitX=0.5;exitY=0;exitDx=0;exitDy=0;entryX=0;entryY=0.5;entryDx=0;entryDy=0;endArrow=none;endFill=0;rounded=1;curved=1;" parent="1" source="_1UwqymwAtqr6VSBaasp-7" target="_1UwqymwAtqr6VSBaasp-26" edge="1">
                    <mxGeometry relative="1" as="geometry"/>
                </mxCell>
                <mxCell id="_1UwqymwAtqr6VSBaasp-75" style="edgeStyle=orthogonalEdgeStyle;rounded=1;orthogonalLoop=1;jettySize=auto;html=1;exitX=1;exitY=0.5;exitDx=0;exitDy=0;entryX=0;entryY=0.5;entryDx=0;entryDy=0;endArrow=none;endFill=0;curved=1;" parent="1" source="_1UwqymwAtqr6VSBaasp-7" target="_1UwqymwAtqr6VSBaasp-73" edge="1">
                    <mxGeometry relative="1" as="geometry"/>
                </mxCell>
                <mxCell id="_1UwqymwAtqr6VSBaasp-96" value="(1,n)" style="edgeLabel;html=1;align=center;verticalAlign=middle;resizable=0;points=[];rounded=1;" parent="_1UwqymwAtqr6VSBaasp-75" vertex="1" connectable="0">
                    <mxGeometry x="-0.3234" y="-2" relative="1" as="geometry">
                        <mxPoint as="offset"/>
                    </mxGeometry>
                </mxCell>
                <mxCell id="_1UwqymwAtqr6VSBaasp-7" value="Servicekraft" style="rounded=1;whiteSpace=wrap;html=1;fillColor=#a20025;fontColor=#ffffff;strokeColor=#6F0000;" parent="1" vertex="1">
                    <mxGeometry x="380" y="-1440" width="120" height="60" as="geometry"/>
                </mxCell>
                <mxCell id="_1UwqymwAtqr6VSBaasp-40" style="edgeStyle=orthogonalEdgeStyle;rounded=1;orthogonalLoop=1;jettySize=auto;html=1;exitX=0;exitY=0.5;exitDx=0;exitDy=0;entryX=1;entryY=0.5;entryDx=0;entryDy=0;endArrow=none;endFill=0;curved=1;" parent="1" source="_1UwqymwAtqr6VSBaasp-8" target="_1UwqymwAtqr6VSBaasp-38" edge="1">
                    <mxGeometry relative="1" as="geometry"/>
                </mxCell>
                <mxCell id="_1UwqymwAtqr6VSBaasp-8" value="Service-Einsatz" style="rounded=1;whiteSpace=wrap;html=1;fillColor=#a20025;fontColor=#ffffff;strokeColor=#6F0000;" parent="1" vertex="1">
                    <mxGeometry x="380" y="-1200" width="120" height="60" as="geometry"/>
                </mxCell>
                <mxCell id="_1UwqymwAtqr6VSBaasp-47" style="edgeStyle=orthogonalEdgeStyle;rounded=1;orthogonalLoop=1;jettySize=auto;html=1;exitX=0.5;exitY=1;exitDx=0;exitDy=0;entryX=0;entryY=0.5;entryDx=0;entryDy=0;endArrow=none;endFill=0;curved=1;" parent="1" source="_1UwqymwAtqr6VSBaasp-10" target="_1UwqymwAtqr6VSBaasp-46" edge="1">
                    <mxGeometry relative="1" as="geometry"/>
                </mxCell>
                <mxCell id="_1UwqymwAtqr6VSBaasp-87" value="(1,1)" style="edgeLabel;html=1;align=center;verticalAlign=middle;resizable=0;points=[];rounded=1;" parent="_1UwqymwAtqr6VSBaasp-47" vertex="1" connectable="0">
                    <mxGeometry x="0.0758" y="-1" relative="1" as="geometry">
                        <mxPoint x="1" y="-23" as="offset"/>
                    </mxGeometry>
                </mxCell>
                <mxCell id="_1UwqymwAtqr6VSBaasp-10" value="braucht" style="rhombus;whiteSpace=wrap;html=1;fillColor=#fa6800;fontColor=#000000;strokeColor=#C73500;rounded=1;" parent="1" vertex="1">
                    <mxGeometry x="255" y="-470" width="90" height="90" as="geometry"/>
                </mxCell>
                <mxCell id="_1UwqymwAtqr6VSBaasp-101" style="edgeStyle=orthogonalEdgeStyle;rounded=1;orthogonalLoop=1;jettySize=auto;html=1;exitX=1;exitY=0.5;exitDx=0;exitDy=0;entryX=0;entryY=0.5;entryDx=0;entryDy=0;endArrow=none;endFill=0;curved=1;" parent="1" source="_1UwqymwAtqr6VSBaasp-12" target="_1UwqymwAtqr6VSBaasp-100" edge="1">
                    <mxGeometry relative="1" as="geometry"/>
                </mxCell>
                <mxCell id="_1UwqymwAtqr6VSBaasp-106" value="(0,n)" style="edgeLabel;html=1;align=center;verticalAlign=middle;resizable=0;points=[];rounded=1;" parent="_1UwqymwAtqr6VSBaasp-101" vertex="1" connectable="0">
                    <mxGeometry x="-0.1667" y="-2" relative="1" as="geometry">
                        <mxPoint y="-2" as="offset"/>
                    </mxGeometry>
                </mxCell>
                <mxCell id="_1UwqymwAtqr6VSBaasp-12" value="hat" style="rhombus;whiteSpace=wrap;html=1;fillColor=#fa6800;fontColor=#000000;strokeColor=#C73500;rounded=1;" parent="1" vertex="1">
                    <mxGeometry x="890" y="-1285" width="90" height="90" as="geometry"/>
                </mxCell>
                <mxCell id="_1UwqymwAtqr6VSBaasp-34" style="edgeStyle=orthogonalEdgeStyle;rounded=1;orthogonalLoop=1;jettySize=auto;html=1;exitX=0.5;exitY=1;exitDx=0;exitDy=0;entryX=0.5;entryY=0;entryDx=0;entryDy=0;endArrow=none;endFill=0;curved=1;" parent="1" source="_1UwqymwAtqr6VSBaasp-13" target="_1UwqymwAtqr6VSBaasp-8" edge="1">
                    <mxGeometry relative="1" as="geometry"/>
                </mxCell>
                <mxCell id="_1UwqymwAtqr6VSBaasp-109" value="(1,1)" style="edgeLabel;html=1;align=center;verticalAlign=middle;resizable=0;points=[];rounded=1;" parent="_1UwqymwAtqr6VSBaasp-34" vertex="1" connectable="0">
                    <mxGeometry x="-0.5449" relative="1" as="geometry">
                        <mxPoint y="8" as="offset"/>
                    </mxGeometry>
                </mxCell>
                <mxCell id="_1UwqymwAtqr6VSBaasp-13" value="macht" style="rhombus;whiteSpace=wrap;html=1;fillColor=#fa6800;fontColor=#000000;strokeColor=#C73500;rounded=1;" parent="1" vertex="1">
                    <mxGeometry x="395" y="-1340" width="90" height="90" as="geometry"/>
                </mxCell>
                <mxCell id="_1UwqymwAtqr6VSBaasp-32" style="edgeStyle=orthogonalEdgeStyle;rounded=1;orthogonalLoop=1;jettySize=auto;html=1;exitX=1;exitY=0.5;exitDx=0;exitDy=0;entryX=0;entryY=0.5;entryDx=0;entryDy=0;endArrow=none;endFill=0;curved=1;" parent="1" source="_1UwqymwAtqr6VSBaasp-14" target="_1UwqymwAtqr6VSBaasp-7" edge="1">
                    <mxGeometry relative="1" as="geometry"/>
                </mxCell>
                <mxCell id="_1UwqymwAtqr6VSBaasp-82" value="(1,n)" style="edgeLabel;html=1;align=center;verticalAlign=middle;resizable=0;points=[];rounded=1;" parent="_1UwqymwAtqr6VSBaasp-32" vertex="1" connectable="0">
                    <mxGeometry x="-0.0024" y="1" relative="1" as="geometry">
                        <mxPoint as="offset"/>
                    </mxGeometry>
                </mxCell>
                <mxCell id="_1UwqymwAtqr6VSBaasp-14" value="stellt an" style="rhombus;whiteSpace=wrap;html=1;fillColor=#fa6800;fontColor=#000000;strokeColor=#C73500;rounded=1;" parent="1" vertex="1">
                    <mxGeometry x="260" y="-1455" width="90" height="90" as="geometry"/>
                </mxCell>
                <mxCell id="_1UwqymwAtqr6VSBaasp-78" style="edgeStyle=orthogonalEdgeStyle;rounded=1;orthogonalLoop=1;jettySize=auto;html=1;exitX=1;exitY=0.5;exitDx=0;exitDy=0;entryX=0;entryY=0.5;entryDx=0;entryDy=0;endArrow=none;endFill=0;curved=1;" parent="1" source="_1UwqymwAtqr6VSBaasp-15" target="_1UwqymwAtqr6VSBaasp-4" edge="1">
                    <mxGeometry relative="1" as="geometry"/>
                </mxCell>
                <mxCell id="_1UwqymwAtqr6VSBaasp-92" value="(1,1)" style="edgeLabel;html=1;align=center;verticalAlign=middle;resizable=0;points=[];rounded=1;" parent="_1UwqymwAtqr6VSBaasp-78" vertex="1" connectable="0">
                    <mxGeometry x="-0.0065" relative="1" as="geometry">
                        <mxPoint x="1" as="offset"/>
                    </mxGeometry>
                </mxCell>
                <mxCell id="_1UwqymwAtqr6VSBaasp-15" value="hat" style="rhombus;whiteSpace=wrap;html=1;fillColor=#fa6800;fontColor=#000000;strokeColor=#C73500;rounded=1;" parent="1" vertex="1">
                    <mxGeometry x="425" y="-590" width="90" height="90" as="geometry"/>
                </mxCell>
                <mxCell id="_1UwqymwAtqr6VSBaasp-53" style="edgeStyle=orthogonalEdgeStyle;rounded=1;orthogonalLoop=1;jettySize=auto;html=1;exitX=1;exitY=0.5;exitDx=0;exitDy=0;entryX=0;entryY=0.5;entryDx=0;entryDy=0;endArrow=none;endFill=0;curved=1;" parent="1" source="_1UwqymwAtqr6VSBaasp-16" target="_1UwqymwAtqr6VSBaasp-6" edge="1">
                    <mxGeometry relative="1" as="geometry"/>
                </mxCell>
                <mxCell id="_1UwqymwAtqr6VSBaasp-88" value="(1,1)" style="edgeLabel;html=1;align=center;verticalAlign=middle;resizable=0;points=[];rounded=1;" parent="_1UwqymwAtqr6VSBaasp-53" vertex="1" connectable="0">
                    <mxGeometry x="0.0353" relative="1" as="geometry">
                        <mxPoint as="offset"/>
                    </mxGeometry>
                </mxCell>
                <mxCell id="_1UwqymwAtqr6VSBaasp-16" value="hat" style="rhombus;whiteSpace=wrap;html=1;fillColor=#fa6800;fontColor=#000000;strokeColor=#C73500;rounded=1;" parent="1" vertex="1">
                    <mxGeometry x="485" y="-355" width="90" height="90" as="geometry"/>
                </mxCell>
                <mxCell id="_1UwqymwAtqr6VSBaasp-50" style="edgeStyle=orthogonalEdgeStyle;rounded=1;orthogonalLoop=1;jettySize=auto;html=1;exitX=0.5;exitY=0;exitDx=0;exitDy=0;endArrow=none;endFill=0;curved=1;" parent="1" source="_1UwqymwAtqr6VSBaasp-17" target="_1UwqymwAtqr6VSBaasp-4" edge="1">
                    <mxGeometry relative="1" as="geometry"/>
                </mxCell>
                <mxCell id="_1UwqymwAtqr6VSBaasp-90" value="(0,1)" style="edgeLabel;html=1;align=center;verticalAlign=middle;resizable=0;points=[];rounded=1;" parent="_1UwqymwAtqr6VSBaasp-50" vertex="1" connectable="0">
                    <mxGeometry x="0.101" y="-1" relative="1" as="geometry">
                        <mxPoint x="3" as="offset"/>
                    </mxGeometry>
                </mxCell>
                <mxCell id="_1UwqymwAtqr6VSBaasp-51" style="edgeStyle=orthogonalEdgeStyle;rounded=1;orthogonalLoop=1;jettySize=auto;html=1;exitX=0.5;exitY=1;exitDx=0;exitDy=0;entryX=0.5;entryY=0;entryDx=0;entryDy=0;endArrow=none;endFill=0;curved=1;" parent="1" source="_1UwqymwAtqr6VSBaasp-17" target="_1UwqymwAtqr6VSBaasp-6" edge="1">
                    <mxGeometry relative="1" as="geometry"/>
                </mxCell>
                <mxCell id="_1UwqymwAtqr6VSBaasp-89" value="(1,n)" style="edgeLabel;html=1;align=center;verticalAlign=middle;resizable=0;points=[];rounded=1;" parent="_1UwqymwAtqr6VSBaasp-51" vertex="1" connectable="0">
                    <mxGeometry x="0.0012" y="2" relative="1" as="geometry">
                        <mxPoint x="-1" as="offset"/>
                    </mxGeometry>
                </mxCell>
                <mxCell id="_1UwqymwAtqr6VSBaasp-17" value="hat" style="rhombus;whiteSpace=wrap;html=1;fillColor=#fa6800;fontColor=#000000;strokeColor=#C73500;rounded=1;" parent="1" vertex="1">
                    <mxGeometry x="635" y="-460" width="90" height="90" as="geometry"/>
                </mxCell>
                <mxCell id="_1UwqymwAtqr6VSBaasp-36" style="edgeStyle=orthogonalEdgeStyle;rounded=1;orthogonalLoop=1;jettySize=auto;html=1;exitX=1;exitY=0.5;exitDx=0;exitDy=0;endArrow=none;endFill=0;curved=1;" parent="1" source="_1UwqymwAtqr6VSBaasp-18" target="_1UwqymwAtqr6VSBaasp-35" edge="1">
                    <mxGeometry relative="1" as="geometry"/>
                </mxCell>
                <mxCell id="_1UwqymwAtqr6VSBaasp-83" value="(1,1)" style="edgeLabel;html=1;align=center;verticalAlign=middle;resizable=0;points=[];rounded=1;" parent="_1UwqymwAtqr6VSBaasp-36" vertex="1" connectable="0">
                    <mxGeometry x="0.1229" y="-1" relative="1" as="geometry">
                        <mxPoint as="offset"/>
                    </mxGeometry>
                </mxCell>
                <mxCell id="_1UwqymwAtqr6VSBaasp-18" value="hat" style="rhombus;whiteSpace=wrap;html=1;fillColor=#fa6800;fontColor=#000000;strokeColor=#C73500;rounded=1;" parent="1" vertex="1">
                    <mxGeometry x="198" y="-985" width="90" height="90" as="geometry"/>
                </mxCell>
                <mxCell id="_1UwqymwAtqr6VSBaasp-20" value="&lt;u&gt;Berechtigung-ID&lt;/u&gt;, Berechtigung" style="ellipse;whiteSpace=wrap;html=1;fillColor=#008a00;fontColor=#ffffff;strokeColor=#005700;rounded=1;" parent="1" vertex="1">
                    <mxGeometry x="1025" y="-1145" width="130" height="50" as="geometry"/>
                </mxCell>
                <mxCell id="_1UwqymwAtqr6VSBaasp-22" value="&lt;u&gt;Buchungsnummer&lt;/u&gt;, Start-Datum, End-Datum, Flag" style="ellipse;whiteSpace=wrap;html=1;fillColor=#008a00;fontColor=#ffffff;strokeColor=#005700;rounded=1;" parent="1" vertex="1">
                    <mxGeometry x="760" y="-490" width="145" height="60" as="geometry"/>
                </mxCell>
                <mxCell id="_1UwqymwAtqr6VSBaasp-23" value="&lt;u&gt;H-AbkÃ¼rzung,&lt;/u&gt;&lt;br&gt;&amp;nbsp;&lt;u&gt;Zimmer-Nr&lt;/u&gt;" style="ellipse;whiteSpace=wrap;html=1;fillColor=#008a00;fontColor=#ffffff;strokeColor=#005700;rounded=1;" parent="1" vertex="1">
                    <mxGeometry x="534" y="-965" width="130" height="50" as="geometry"/>
                </mxCell>
                <mxCell id="_1UwqymwAtqr6VSBaasp-26" value="&lt;u&gt;Mitarbeiter ID, &lt;/u&gt;Nachname, Vorname" style="ellipse;whiteSpace=wrap;html=1;fillColor=#008a00;fontColor=#ffffff;strokeColor=#005700;rounded=1;" parent="1" vertex="1">
                    <mxGeometry x="470" y="-1540" width="130" height="50" as="geometry"/>
                </mxCell>
                <mxCell id="_1UwqymwAtqr6VSBaasp-28" value="&lt;u&gt;H-AbkÃ¼rzung&lt;/u&gt;" style="ellipse;whiteSpace=wrap;html=1;fillColor=#008a00;fontColor=#ffffff;strokeColor=#005700;rounded=1;" parent="1" vertex="1">
                    <mxGeometry x="20" y="-1270" width="130" height="50" as="geometry"/>
                </mxCell>
                <mxCell id="_1UwqymwAtqr6VSBaasp-56" style="edgeStyle=orthogonalEdgeStyle;rounded=1;orthogonalLoop=1;jettySize=auto;html=1;exitX=1;exitY=0.5;exitDx=0;exitDy=0;endArrow=none;endFill=0;curved=1;" parent="1" source="_1UwqymwAtqr6VSBaasp-35" target="_1UwqymwAtqr6VSBaasp-23" edge="1">
                    <mxGeometry relative="1" as="geometry"/>
                </mxCell>
                <mxCell id="_1UwqymwAtqr6VSBaasp-58" style="edgeStyle=orthogonalEdgeStyle;rounded=1;orthogonalLoop=1;jettySize=auto;html=1;exitX=1;exitY=1;exitDx=0;exitDy=0;entryX=0.5;entryY=0;entryDx=0;entryDy=0;endArrow=none;endFill=0;curved=1;" parent="1" source="_1UwqymwAtqr6VSBaasp-35" target="_1UwqymwAtqr6VSBaasp-57" edge="1">
                    <mxGeometry relative="1" as="geometry">
                        <Array as="points">
                            <mxPoint x="500" y="-850"/>
                            <mxPoint x="680" y="-850"/>
                        </Array>
                    </mxGeometry>
                </mxCell>
                <mxCell id="_1UwqymwAtqr6VSBaasp-84" value="(0,m)" style="edgeLabel;html=1;align=center;verticalAlign=middle;resizable=0;points=[];rounded=1;" parent="_1UwqymwAtqr6VSBaasp-58" vertex="1" connectable="0">
                    <mxGeometry x="0.0224" relative="1" as="geometry">
                        <mxPoint as="offset"/>
                    </mxGeometry>
                </mxCell>
                <mxCell id="_1UwqymwAtqr6VSBaasp-111" style="edgeStyle=orthogonalEdgeStyle;rounded=1;orthogonalLoop=1;jettySize=auto;html=1;exitX=0.5;exitY=0;exitDx=0;exitDy=0;entryX=0.5;entryY=1;entryDx=0;entryDy=0;endArrow=none;endFill=0;curved=1;" parent="1" source="_1UwqymwAtqr6VSBaasp-35" target="_1UwqymwAtqr6VSBaasp-110" edge="1">
                    <mxGeometry relative="1" as="geometry"/>
                </mxCell>
                <mxCell id="_1UwqymwAtqr6VSBaasp-113" value="(0,n)" style="edgeLabel;html=1;align=center;verticalAlign=middle;resizable=0;points=[];rounded=1;" parent="_1UwqymwAtqr6VSBaasp-111" vertex="1" connectable="0">
                    <mxGeometry x="0.5204" y="-1" relative="1" as="geometry">
                        <mxPoint x="-1" y="11" as="offset"/>
                    </mxGeometry>
                </mxCell>
                <mxCell id="_1UwqymwAtqr6VSBaasp-116" style="edgeStyle=orthogonalEdgeStyle;rounded=1;orthogonalLoop=1;jettySize=auto;html=1;exitX=0.5;exitY=1;exitDx=0;exitDy=0;entryX=0.5;entryY=0;entryDx=0;entryDy=0;endArrow=none;endFill=0;curved=1;" parent="1" source="_1UwqymwAtqr6VSBaasp-35" target="_1UwqymwAtqr6VSBaasp-115" edge="1">
                    <mxGeometry relative="1" as="geometry"/>
                </mxCell>
                <mxCell id="_1UwqymwAtqr6VSBaasp-119" value="(1,1)" style="edgeLabel;html=1;align=center;verticalAlign=middle;resizable=0;points=[];rounded=1;" parent="_1UwqymwAtqr6VSBaasp-116" vertex="1" connectable="0">
                    <mxGeometry x="0.1808" y="-1" relative="1" as="geometry">
                        <mxPoint as="offset"/>
                    </mxGeometry>
                </mxCell>
                <mxCell id="_1UwqymwAtqr6VSBaasp-35" value="Zimmer" style="rounded=1;whiteSpace=wrap;html=1;fillColor=#a20025;fontColor=#ffffff;strokeColor=#6F0000;" parent="1" vertex="1">
                    <mxGeometry x="380" y="-970" width="120" height="60" as="geometry"/>
                </mxCell>
                <mxCell id="_1UwqymwAtqr6VSBaasp-38" value="&lt;u&gt;Einsatz ID&lt;/u&gt;, Datum, Uhrzeit, Kommentar, Dauer" style="ellipse;whiteSpace=wrap;html=1;fillColor=#008a00;fontColor=#ffffff;strokeColor=#005700;rounded=1;" parent="1" vertex="1">
                    <mxGeometry x="210" y="-1200" width="140" height="57.5" as="geometry"/>
                </mxCell>
                <mxCell id="_1UwqymwAtqr6VSBaasp-41" style="edgeStyle=orthogonalEdgeStyle;rounded=1;orthogonalLoop=1;jettySize=auto;html=1;exitX=0;exitY=0.5;exitDx=0;exitDy=0;entryX=1;entryY=0;entryDx=0;entryDy=0;endArrow=none;endFill=0;curved=1;" parent="1" source="_1UwqymwAtqr6VSBaasp-39" target="_1UwqymwAtqr6VSBaasp-5" edge="1">
                    <mxGeometry relative="1" as="geometry">
                        <Array as="points">
                            <mxPoint x="820" y="-1330"/>
                            <mxPoint x="820" y="-1330"/>
                        </Array>
                    </mxGeometry>
                </mxCell>
                <mxCell id="_1UwqymwAtqr6VSBaasp-39" value="&lt;u&gt;ID&lt;br&gt;&lt;/u&gt;" style="ellipse;whiteSpace=wrap;html=1;fillColor=#008a00;fontColor=#ffffff;strokeColor=#005700;rounded=1;" parent="1" vertex="1">
                    <mxGeometry x="815" y="-1350" width="65" height="50" as="geometry"/>
                </mxCell>
                <mxCell id="_1UwqymwAtqr6VSBaasp-43" value="&lt;u&gt;Kunden-ID&lt;/u&gt;, Geburtsjahr, Name" style="ellipse;whiteSpace=wrap;html=1;fillColor=#008a00;fontColor=#ffffff;strokeColor=#005700;rounded=1;" parent="1" vertex="1">
                    <mxGeometry x="225" y="-670" width="150" height="50" as="geometry"/>
                </mxCell>
                <mxCell id="_1UwqymwAtqr6VSBaasp-49" style="edgeStyle=orthogonalEdgeStyle;rounded=1;orthogonalLoop=1;jettySize=auto;html=1;exitX=0.5;exitY=1;exitDx=0;exitDy=0;entryX=0;entryY=0.5;entryDx=0;entryDy=0;endArrow=none;endFill=0;curved=1;" parent="1" source="_1UwqymwAtqr6VSBaasp-46" target="_1UwqymwAtqr6VSBaasp-48" edge="1">
                    <mxGeometry relative="1" as="geometry"/>
                </mxCell>
                <mxCell id="_1UwqymwAtqr6VSBaasp-52" value="(0,n)" style="edgeStyle=orthogonalEdgeStyle;rounded=1;orthogonalLoop=1;jettySize=auto;html=1;endArrow=none;endFill=0;entryX=0;entryY=0.5;entryDx=0;entryDy=0;exitX=1;exitY=0.5;exitDx=0;exitDy=0;curved=1;" parent="1" source="_1UwqymwAtqr6VSBaasp-46" target="_1UwqymwAtqr6VSBaasp-16" edge="1">
                    <mxGeometry relative="1" as="geometry">
                        <mxPoint x="455" y="-280" as="sourcePoint"/>
                        <mxPoint x="500" y="-325" as="targetPoint"/>
                    </mxGeometry>
                </mxCell>
                <mxCell id="_1UwqymwAtqr6VSBaasp-46" value="Rechnungsadresse" style="rounded=1;whiteSpace=wrap;html=1;fillColor=#a20025;fontColor=#ffffff;strokeColor=#6F0000;" parent="1" vertex="1">
                    <mxGeometry x="320" y="-340" width="120" height="60" as="geometry"/>
                </mxCell>
                <mxCell id="_1UwqymwAtqr6VSBaasp-48" value="&lt;u&gt;R_Adresse_ID&lt;/u&gt;,&lt;br&gt;Adresse" style="ellipse;whiteSpace=wrap;html=1;fillColor=#008a00;fontColor=#ffffff;strokeColor=#005700;rounded=1;" parent="1" vertex="1">
                    <mxGeometry x="403" y="-240" width="130" height="50" as="geometry"/>
                </mxCell>
                <mxCell id="_1UwqymwAtqr6VSBaasp-54" value="&lt;u&gt;Rechnungs-Nummer, &lt;/u&gt;&amp;nbsp;Rechnungsbetrag" style="ellipse;whiteSpace=wrap;html=1;fillColor=#008a00;fontColor=#ffffff;strokeColor=#005700;rounded=1;" parent="1" vertex="1">
                    <mxGeometry x="720" y="-260" width="190" height="90" as="geometry"/>
                </mxCell>
                <mxCell id="_1UwqymwAtqr6VSBaasp-59" style="edgeStyle=orthogonalEdgeStyle;rounded=1;orthogonalLoop=1;jettySize=auto;html=1;exitX=0.5;exitY=1;exitDx=0;exitDy=0;entryX=0.5;entryY=0;entryDx=0;entryDy=0;endArrow=none;endFill=0;curved=1;" parent="1" source="_1UwqymwAtqr6VSBaasp-57" target="_1UwqymwAtqr6VSBaasp-4" edge="1">
                    <mxGeometry relative="1" as="geometry"/>
                </mxCell>
                <mxCell id="_1UwqymwAtqr6VSBaasp-85" value="(1,n)" style="edgeLabel;html=1;align=center;verticalAlign=middle;resizable=0;points=[];rounded=1;" parent="_1UwqymwAtqr6VSBaasp-59" vertex="1" connectable="0">
                    <mxGeometry x="-0.3279" y="1" relative="1" as="geometry">
                        <mxPoint as="offset"/>
                    </mxGeometry>
                </mxCell>
                <mxCell id="_1UwqymwAtqr6VSBaasp-57" value="besitzt" style="rhombus;whiteSpace=wrap;html=1;fillColor=#fa6800;fontColor=#000000;strokeColor=#C73500;rounded=1;" parent="1" vertex="1">
                    <mxGeometry x="635" y="-790" width="90" height="90" as="geometry"/>
                </mxCell>
                <mxCell id="_1UwqymwAtqr6VSBaasp-79" style="edgeStyle=orthogonalEdgeStyle;rounded=1;orthogonalLoop=1;jettySize=auto;html=1;exitX=0.5;exitY=1;exitDx=0;exitDy=0;endArrow=none;endFill=0;curved=1;" parent="1" source="_1UwqymwAtqr6VSBaasp-68" target="_1UwqymwAtqr6VSBaasp-4" edge="1">
                    <mxGeometry relative="1" as="geometry">
                        <Array as="points">
                            <mxPoint x="760" y="-590"/>
                            <mxPoint x="680" y="-590"/>
                        </Array>
                        <mxPoint x="710" y="-630" as="targetPoint"/>
                    </mxGeometry>
                </mxCell>
                <mxCell id="_1UwqymwAtqr6VSBaasp-93" value="(0,3)" style="edgeLabel;html=1;align=center;verticalAlign=middle;resizable=0;points=[];rounded=1;" parent="_1UwqymwAtqr6VSBaasp-79" vertex="1" connectable="0">
                    <mxGeometry x="0.0448" y="1" relative="1" as="geometry">
                        <mxPoint x="-1" y="-98" as="offset"/>
                    </mxGeometry>
                </mxCell>
                <mxCell id="_1UwqymwAtqr6VSBaasp-68" value="benÃ¶tigt" style="rhombus;whiteSpace=wrap;html=1;fillColor=#fa6800;fontColor=#000000;strokeColor=#C73500;rounded=1;" parent="1" vertex="1">
                    <mxGeometry x="715" y="-1040" width="90" height="90" as="geometry"/>
                </mxCell>
                <mxCell id="_1UwqymwAtqr6VSBaasp-76" style="edgeStyle=orthogonalEdgeStyle;rounded=1;orthogonalLoop=1;jettySize=auto;html=1;exitX=1;exitY=0.5;exitDx=0;exitDy=0;endArrow=none;endFill=0;entryX=0.5;entryY=0;entryDx=0;entryDy=0;curved=1;" parent="1" source="_1UwqymwAtqr6VSBaasp-73" target="_1UwqymwAtqr6VSBaasp-5" edge="1">
                    <mxGeometry relative="1" as="geometry">
                        <mxPoint x="970" y="-1410" as="sourcePoint"/>
                        <mxPoint x="1090" y="-1410" as="targetPoint"/>
                    </mxGeometry>
                </mxCell>
                <mxCell id="_1UwqymwAtqr6VSBaasp-95" value="(0,1)" style="edgeLabel;html=1;align=center;verticalAlign=middle;resizable=0;points=[];rounded=1;" parent="_1UwqymwAtqr6VSBaasp-76" vertex="1" connectable="0">
                    <mxGeometry x="0.0748" relative="1" as="geometry">
                        <mxPoint y="22" as="offset"/>
                    </mxGeometry>
                </mxCell>
                <mxCell id="_1UwqymwAtqr6VSBaasp-73" value="benÃ¶tigt" style="rhombus;whiteSpace=wrap;html=1;fillColor=#fa6800;fontColor=#000000;strokeColor=#C73500;rounded=1;" parent="1" vertex="1">
                    <mxGeometry x="655" y="-1455" width="90" height="90" as="geometry"/>
                </mxCell>
                <mxCell id="_1UwqymwAtqr6VSBaasp-102" style="edgeStyle=orthogonalEdgeStyle;rounded=1;orthogonalLoop=1;jettySize=auto;html=1;exitX=0.5;exitY=1;exitDx=0;exitDy=0;endArrow=none;endFill=0;curved=1;" parent="1" source="_1UwqymwAtqr6VSBaasp-100" target="_1UwqymwAtqr6VSBaasp-20" edge="1">
                    <mxGeometry relative="1" as="geometry"/>
                </mxCell>
                <mxCell id="_1UwqymwAtqr6VSBaasp-100" value="Berechtigung" style="rounded=1;whiteSpace=wrap;html=1;fillColor=#a20025;fontColor=#ffffff;strokeColor=#6F0000;" parent="1" vertex="1">
                    <mxGeometry x="1030" y="-1270" width="120" height="60" as="geometry"/>
                </mxCell>
                <mxCell id="_1UwqymwAtqr6VSBaasp-112" style="edgeStyle=orthogonalEdgeStyle;rounded=1;orthogonalLoop=1;jettySize=auto;html=1;exitX=0.5;exitY=0;exitDx=0;exitDy=0;entryX=0.5;entryY=1;entryDx=0;entryDy=0;endArrow=none;endFill=0;curved=1;" parent="1" source="_1UwqymwAtqr6VSBaasp-110" target="_1UwqymwAtqr6VSBaasp-8" edge="1">
                    <mxGeometry relative="1" as="geometry"/>
                </mxCell>
                <mxCell id="_1UwqymwAtqr6VSBaasp-114" value="(1,n)" style="edgeLabel;html=1;align=center;verticalAlign=middle;resizable=0;points=[];rounded=1;" parent="_1UwqymwAtqr6VSBaasp-112" vertex="1" connectable="0">
                    <mxGeometry x="0.0846" relative="1" as="geometry">
                        <mxPoint as="offset"/>
                    </mxGeometry>
                </mxCell>
                <mxCell id="_1UwqymwAtqr6VSBaasp-110" value="hat" style="rhombus;whiteSpace=wrap;html=1;fillColor=#fa6800;fontColor=#000000;strokeColor=#C73500;rounded=1;" parent="1" vertex="1">
                    <mxGeometry x="395" y="-1100" width="90" height="90" as="geometry"/>
                </mxCell>
                <mxCell id="_1UwqymwAtqr6VSBaasp-118" style="edgeStyle=orthogonalEdgeStyle;rounded=1;orthogonalLoop=1;jettySize=auto;html=1;exitX=0.5;exitY=1;exitDx=0;exitDy=0;entryX=0.5;entryY=0;entryDx=0;entryDy=0;endArrow=none;endFill=0;curved=1;" parent="1" source="_1UwqymwAtqr6VSBaasp-115" target="_1UwqymwAtqr6VSBaasp-117" edge="1">
                    <mxGeometry relative="1" as="geometry"/>
                </mxCell>
                <mxCell id="_1UwqymwAtqr6VSBaasp-120" value="(1,n)" style="edgeLabel;html=1;align=center;verticalAlign=middle;resizable=0;points=[];rounded=1;" parent="_1UwqymwAtqr6VSBaasp-118" vertex="1" connectable="0">
                    <mxGeometry x="-0.0099" y="-3" relative="1" as="geometry">
                        <mxPoint as="offset"/>
                    </mxGeometry>
                </mxCell>
                <mxCell id="_1UwqymwAtqr6VSBaasp-115" value="hat" style="rhombus;whiteSpace=wrap;html=1;fillColor=#fa6800;fontColor=#000000;strokeColor=#C73500;rounded=1;" parent="1" vertex="1">
                    <mxGeometry x="395" y="-860" width="90" height="90" as="geometry"/>
                </mxCell>
                <mxCell id="_1UwqymwAtqr6VSBaasp-154" style="edgeStyle=orthogonalEdgeStyle;rounded=1;orthogonalLoop=1;jettySize=auto;html=1;exitX=1;exitY=0.5;exitDx=0;exitDy=0;entryX=0;entryY=0.5;entryDx=0;entryDy=0;endArrow=none;endFill=0;curved=1;" parent="1" source="_1UwqymwAtqr6VSBaasp-117" target="_1UwqymwAtqr6VSBaasp-153" edge="1">
                    <mxGeometry relative="1" as="geometry"/>
                </mxCell>
                <mxCell id="_1UwqymwAtqr6VSBaasp-117" value="Typ" style="rounded=1;whiteSpace=wrap;html=1;fillColor=#a20025;fontColor=#ffffff;strokeColor=#6F0000;" parent="1" vertex="1">
                    <mxGeometry x="380" y="-730" width="120" height="60" as="geometry"/>
                </mxCell>
                <mxCell id="_1UwqymwAtqr6VSBaasp-124" style="edgeStyle=orthogonalEdgeStyle;rounded=1;orthogonalLoop=1;jettySize=auto;html=1;exitX=1;exitY=0.5;exitDx=0;exitDy=0;endArrow=none;endFill=0;curved=1;" parent="1" source="_1UwqymwAtqr6VSBaasp-121" target="_1UwqymwAtqr6VSBaasp-123" edge="1">
                    <mxGeometry relative="1" as="geometry"/>
                </mxCell>
                <mxCell id="_1UwqymwAtqr6VSBaasp-126" value="(0,n)" style="edgeLabel;html=1;align=center;verticalAlign=middle;resizable=0;points=[];rounded=1;" parent="_1UwqymwAtqr6VSBaasp-124" vertex="1" connectable="0">
                    <mxGeometry x="0.1231" relative="1" as="geometry">
                        <mxPoint as="offset"/>
                    </mxGeometry>
                </mxCell>
                <mxCell id="_1UwqymwAtqr6VSBaasp-121" value="hat" style="rhombus;whiteSpace=wrap;html=1;fillColor=#fa6800;fontColor=#000000;strokeColor=#C73500;rounded=1;" parent="1" vertex="1">
                    <mxGeometry x="850" y="-595" width="90" height="90" as="geometry"/>
                </mxCell>
                <mxCell id="_1UwqymwAtqr6VSBaasp-131" style="edgeStyle=orthogonalEdgeStyle;rounded=1;orthogonalLoop=1;jettySize=auto;html=1;exitX=0.5;exitY=1;exitDx=0;exitDy=0;endArrow=none;endFill=0;curved=1;" parent="1" source="_1UwqymwAtqr6VSBaasp-123" target="_1UwqymwAtqr6VSBaasp-130" edge="1">
                    <mxGeometry relative="1" as="geometry"/>
                </mxCell>
                <mxCell id="_1UwqymwAtqr6VSBaasp-123" value="Buchungsart" style="rounded=1;whiteSpace=wrap;html=1;fillColor=#a20025;fontColor=#ffffff;strokeColor=#6F0000;" parent="1" vertex="1">
                    <mxGeometry x="1010" y="-580" width="120" height="60" as="geometry"/>
                </mxCell>
                <mxCell id="_1UwqymwAtqr6VSBaasp-130" value="&lt;u&gt;Buchungs-ID&lt;/u&gt;, &lt;br&gt;Buchtyp" style="ellipse;whiteSpace=wrap;html=1;fillColor=#008a00;fontColor=#ffffff;strokeColor=#005700;rounded=1;" parent="1" vertex="1">
                    <mxGeometry x="1005" y="-460" width="130" height="50" as="geometry"/>
                </mxCell>
                <mxCell id="_1UwqymwAtqr6VSBaasp-135" style="edgeStyle=orthogonalEdgeStyle;rounded=1;orthogonalLoop=1;jettySize=auto;html=1;exitX=1;exitY=0.5;exitDx=0;exitDy=0;entryX=0.875;entryY=-0.017;entryDx=0;entryDy=0;endArrow=none;endFill=0;entryPerimeter=0;curved=1;" parent="1" source="_1UwqymwAtqr6VSBaasp-134" target="_1UwqymwAtqr6VSBaasp-5" edge="1">
                    <mxGeometry relative="1" as="geometry"/>
                </mxCell>
                <mxCell id="_1UwqymwAtqr6VSBaasp-138" value="(1,1)" style="edgeLabel;html=1;align=center;verticalAlign=middle;resizable=0;points=[];rounded=1;" parent="_1UwqymwAtqr6VSBaasp-135" vertex="1" connectable="0">
                    <mxGeometry x="0.4816" relative="1" as="geometry">
                        <mxPoint y="-91" as="offset"/>
                    </mxGeometry>
                </mxCell>
                <mxCell id="_1UwqymwAtqr6VSBaasp-134" value="besitzt" style="rhombus;whiteSpace=wrap;html=1;fillColor=#fa6800;fontColor=#000000;strokeColor=#C73500;rounded=1;" parent="1" vertex="1">
                    <mxGeometry x="524" y="-1635" width="90" height="90" as="geometry"/>
                </mxCell>
                <mxCell id="_1UwqymwAtqr6VSBaasp-142" style="edgeStyle=orthogonalEdgeStyle;rounded=1;orthogonalLoop=1;jettySize=auto;html=1;exitX=0.5;exitY=1;exitDx=0;exitDy=0;entryX=0.5;entryY=0;entryDx=0;entryDy=0;endArrow=none;endFill=0;curved=1;" parent="1" source="_1UwqymwAtqr6VSBaasp-139" target="_1UwqymwAtqr6VSBaasp-143" edge="1">
                    <mxGeometry relative="1" as="geometry">
                        <mxPoint x="-59.99999999999545" y="-549.9999999999998" as="targetPoint"/>
                    </mxGeometry>
                </mxCell>
                <mxCell id="_1UwqymwAtqr6VSBaasp-152" value="(0,n)" style="edgeLabel;html=1;align=center;verticalAlign=middle;resizable=0;points=[];rounded=1;" parent="_1UwqymwAtqr6VSBaasp-142" vertex="1" connectable="0">
                    <mxGeometry x="-0.0171" y="1" relative="1" as="geometry">
                        <mxPoint as="offset"/>
                    </mxGeometry>
                </mxCell>
                <mxCell id="_1UwqymwAtqr6VSBaasp-139" value="besitzt" style="rhombus;whiteSpace=wrap;html=1;fillColor=#fa6800;fontColor=#000000;strokeColor=#C73500;rounded=1;" parent="1" vertex="1">
                    <mxGeometry x="90" y="-590" width="90" height="90" as="geometry"/>
                </mxCell>
                <mxCell id="_1UwqymwAtqr6VSBaasp-143" value="Status" style="rounded=1;whiteSpace=wrap;html=1;fillColor=#a20025;fontColor=#ffffff;strokeColor=#6F0000;" parent="1" vertex="1">
                    <mxGeometry x="75" y="-400" width="120" height="60" as="geometry"/>
                </mxCell>
                <mxCell id="_1UwqymwAtqr6VSBaasp-150" style="edgeStyle=orthogonalEdgeStyle;rounded=1;orthogonalLoop=1;jettySize=auto;html=1;exitX=0.5;exitY=0;exitDx=0;exitDy=0;entryX=0.5;entryY=1;entryDx=0;entryDy=0;endArrow=none;endFill=0;curved=1;" parent="1" source="_1UwqymwAtqr6VSBaasp-149" target="_1UwqymwAtqr6VSBaasp-143" edge="1">
                    <mxGeometry relative="1" as="geometry"/>
                </mxCell>
                <mxCell id="_1UwqymwAtqr6VSBaasp-149" value="&lt;u&gt;Status ID&lt;/u&gt;, Status Bezeichnung" style="ellipse;whiteSpace=wrap;html=1;fillColor=#008a00;fontColor=#ffffff;strokeColor=#005700;rounded=1;" parent="1" vertex="1">
                    <mxGeometry x="60" y="-290" width="150" height="50" as="geometry"/>
                </mxCell>
                <mxCell id="_1UwqymwAtqr6VSBaasp-153" value="&lt;u&gt;Typ ID, &lt;/u&gt;Typ" style="ellipse;whiteSpace=wrap;html=1;fillColor=#008a00;fontColor=#ffffff;strokeColor=#005700;rounded=1;" parent="1" vertex="1">
                    <mxGeometry x="515" y="-725" width="130" height="50" as="geometry"/>
                </mxCell>
                <mxCell id="3" value="" style="edgeStyle=none;html=1;endArrow=none;endFill=0;rounded=1;curved=1;" parent="1" source="2" target="_1UwqymwAtqr6VSBaasp-10" edge="1">
                    <mxGeometry relative="1" as="geometry"/>
                </mxCell>
                <mxCell id="2" value="IstRechnungsadresse" style="ellipse;whiteSpace=wrap;html=1;rounded=1;fillColor=#008a00;fontColor=#ffffff;strokeColor=#005700;" parent="1" vertex="1">
                    <mxGeometry x="370" y="-440" width="140" height="40" as="geometry"/>
                </mxCell>
                <mxCell id="5" value="" style="edgeStyle=none;html=1;endArrow=none;endFill=0;rounded=1;curved=1;" parent="1" source="4" target="_1UwqymwAtqr6VSBaasp-68" edge="1">
                    <mxGeometry relative="1" as="geometry"/>
                </mxCell>
                <mxCell id="4" value="Ausgabedatum, RÃ¼ckgabedatum" style="ellipse;whiteSpace=wrap;html=1;rounded=1;fillColor=#008a00;fontColor=#ffffff;strokeColor=#005700;" parent="1" vertex="1">
                    <mxGeometry x="880" y="-1010" width="120" height="60" as="geometry"/>
                </mxCell>
                <mxCell id="7" value="(0,m)" style="edgeStyle=none;curved=1;rounded=1;html=1;endArrow=none;endFill=0;" edge="1" parent="1" source="6" target="_1UwqymwAtqr6VSBaasp-5">
                    <mxGeometry relative="1" as="geometry"/>
                </mxCell>
                <mxCell id="8" value="(0,n)" style="edgeStyle=none;curved=1;rounded=1;html=1;endArrow=none;endFill=0;" edge="1" parent="1" source="6" target="_1UwqymwAtqr6VSBaasp-35">
                    <mxGeometry relative="1" as="geometry"/>
                </mxCell>
                <mxCell id="6" value="Zugang" style="rhombus;whiteSpace=wrap;html=1;rounded=1;fillColor=#fa6800;fontColor=#000000;strokeColor=#C73500;" vertex="1" parent="1">
                    <mxGeometry x="570" y="-1145" width="80" height="80" as="geometry"/>
                </mxCell>
                <mxCell id="10" value="Einsatztyp&lt;br&gt;" style="whiteSpace=wrap;html=1;rounded=1;fillColor=#a20025;fontColor=#ffffff;strokeColor=#6F0000;" vertex="1" parent="1">
                    <mxGeometry x="500" y="-1300" width="120" height="60" as="geometry"/>
                </mxCell>
                <mxCell id="12" value="(1,1)" style="edgeStyle=none;curved=1;rounded=1;html=1;endArrow=none;endFill=0;" edge="1" parent="1" source="11" target="_1UwqymwAtqr6VSBaasp-8">
                    <mxGeometry relative="1" as="geometry"/>
                </mxCell>
                <mxCell id="13" value="(1,n)" style="edgeStyle=none;curved=1;rounded=1;html=1;endArrow=none;endFill=0;" edge="1" parent="1" source="11" target="10">
                    <mxGeometry relative="1" as="geometry"/>
                </mxCell>
                <mxCell id="11" value="ZuO" style="rhombus;whiteSpace=wrap;html=1;rounded=1;fillColor=#fa6800;fontColor=#000000;strokeColor=#C73500;" vertex="1" parent="1">
                    <mxGeometry x="520" y="-1215" width="80" height="80" as="geometry"/>
                </mxCell>
                <mxCell id="15" value="" style="edgeStyle=none;curved=1;rounded=1;html=1;endArrow=none;endFill=0;" edge="1" parent="1" source="14" target="10">
                    <mxGeometry relative="1" as="geometry"/>
                </mxCell>
                <mxCell id="14" value="&lt;u&gt;EinsatzTyp_ID, &lt;/u&gt;Beizeichnung" style="ellipse;whiteSpace=wrap;html=1;rounded=1;fillColor=#008a00;fontColor=#ffffff;strokeColor=#005700;" vertex="1" parent="1">
                    <mxGeometry x="524" y="-1377" width="120" height="60" as="geometry"/>
                </mxCell>
            </root>
        </mxGraphModel>
    </diagram>
</mxfile>